<svg width="77" height="54" viewBox="0 0 77 54" fill="none" xmlns="http://www.w3.org/2000/svg">
<path d="M42.4869 41.6525H40.7444C40.5133 41.6525 40.2917 41.5632 40.1283 41.4042C39.9649 41.2452 39.8731 41.0295 39.8731 40.8047C39.8731 40.5798 39.9649 40.3641 40.1283 40.2051C40.2917 40.0461 40.5133 39.9568 40.7444 39.9568H42.4869C42.718 39.9568 42.9396 40.0461 43.103 40.2051C43.2664 40.3641 43.3581 40.5798 43.3581 40.8047C43.3581 41.0295 43.2664 41.2452 43.103 41.4042C42.9396 41.5632 42.718 41.6525 42.4869 41.6525ZM37.2594 39.9568H36.969V39.6742C36.969 39.4493 36.8772 39.2336 36.7138 39.0746C36.5504 38.9156 36.3288 38.8263 36.0977 38.8263C35.8667 38.8263 35.6451 38.9156 35.4817 39.0746C35.3183 39.2336 35.2265 39.4493 35.2265 39.6742V39.9568H34.9361C34.705 39.9568 34.4834 40.0461 34.32 40.2051C34.1566 40.3641 34.0648 40.5798 34.0648 40.8047C34.0648 41.0295 34.1566 41.2452 34.32 41.4042C34.4834 41.5632 34.705 41.6525 34.9361 41.6525H35.2265V41.9352C35.2265 42.16 35.3183 42.3757 35.4817 42.5347C35.6451 42.6937 35.8667 42.7831 36.0977 42.7831C36.3288 42.7831 36.5504 42.6937 36.7138 42.5347C36.8772 42.3757 36.969 42.16 36.969 41.9352V41.6525H37.2594C37.4905 41.6525 37.7121 41.5632 37.8755 41.4042C38.0389 41.2452 38.1307 41.0295 38.1307 40.8047C38.1307 40.5798 38.0389 40.3641 37.8755 40.2051C37.7121 40.0461 37.4905 39.9568 37.2594 39.9568ZM47.4791 47.7955C47.2359 48.133 46.9198 48.4146 46.5529 48.6206C46.1859 48.8267 45.7772 48.9521 45.3552 48.9881C44.9332 49.0241 44.5082 48.9699 44.1101 48.8291C43.7119 48.6884 43.3502 48.4646 43.0503 48.1735C43.0367 48.161 43.0239 48.1478 43.0118 48.1339L40.2122 45.0441H37.7916L34.9949 48.1339C34.9825 48.1473 34.9695 48.1608 34.9564 48.1735C34.5195 48.5981 33.955 48.8761 33.3447 48.9673C32.7345 49.0584 32.1102 48.9579 31.5626 48.6804C31.015 48.4028 30.5726 47.9626 30.2995 47.4237C30.0264 46.8848 29.9369 46.2753 30.044 45.6835C30.0436 45.6788 30.0436 45.6741 30.044 45.6694L31.2333 39.73C31.4225 38.6853 31.9838 37.7388 32.8187 37.0567C33.6535 36.3746 34.7086 36.0005 35.7986 36H42.1965C43.2832 36.0015 44.335 36.3732 45.1696 37.0505C46.0041 37.7278 46.5687 38.668 46.7654 39.7081C46.7657 39.7125 46.7657 39.717 46.7654 39.7215L47.9533 45.6687C47.9535 45.6734 47.9535 45.6781 47.9533 45.6828C48.0216 46.048 48.0149 46.4227 47.9336 46.7853C47.8522 47.148 47.6977 47.4913 47.4791 47.7955ZM42.1965 43.3483C42.9667 43.3483 43.7054 43.0505 44.25 42.5205C44.7947 41.9905 45.1006 41.2716 45.1006 40.522C45.1006 39.7725 44.7947 39.0536 44.25 38.5236C43.7054 37.9935 42.9667 37.6958 42.1965 37.6958H35.7993C35.1176 37.6964 34.458 37.931 33.9365 38.3583C33.415 38.7855 33.065 39.3781 32.9482 40.0317C32.9478 40.0366 32.9478 40.0416 32.9482 40.0465L31.7618 45.9817C31.7104 46.2762 31.7808 46.5785 31.9576 46.8226C32.1345 47.0667 32.4034 47.2328 32.7057 47.2846C32.8856 47.3151 33.0704 47.3041 33.2452 47.2525C33.42 47.2008 33.5799 47.1099 33.712 46.9871L36.7439 43.6359C36.8256 43.5456 36.9262 43.4732 37.0388 43.4236C37.1515 43.3741 37.2737 43.3484 37.3974 43.3483H42.1965ZM46.2449 45.9845L45.7367 43.4444C45.3369 43.9044 44.8466 44.2818 44.2946 44.5544C43.7425 44.8269 43.14 44.9891 42.5225 45.0314L44.2947 46.99C44.4711 47.1546 44.6963 47.261 44.9384 47.2938C45.1804 47.3267 45.427 47.2845 45.6429 47.1731C45.8589 47.0617 46.0332 46.8869 46.1412 46.6735C46.2491 46.4601 46.2859 46.219 46.2449 45.9845Z" fill="#6419F0"/>
<path d="M32.8592 6.41847C32.7819 6.47068 32.7184 6.54086 32.6741 6.62301C32.6299 6.70515 32.6063 6.7968 32.6052 6.89009C32.6042 6.98339 32.6258 7.07555 32.6682 7.15866C32.7105 7.24178 32.7725 7.31338 32.8486 7.36731L36.0757 9.65235L36.0731 10.9231L34.9134 11.4424L31.5136 9.42335C31.4333 9.37573 31.3427 9.34828 31.2496 9.34336C31.1564 9.33844 31.0635 9.35619 30.9787 9.39509C30.8939 9.43399 30.8198 9.49288 30.7627 9.5667C30.7057 9.64053 30.6674 9.72709 30.6512 9.81897C30.5032 10.6562 30.5631 11.5171 30.8256 12.3258C31.0881 13.1345 31.5452 13.8664 32.1567 14.4571C32.7683 15.0478 33.5155 15.4793 34.3327 15.7137C35.15 15.948 36.0122 15.978 36.8438 15.8011C37.5462 15.6528 38.2104 15.361 38.7949 14.9441L43.3692 18.4106C43.3799 18.4193 43.3919 18.4271 43.4032 18.435C43.9164 18.7684 44.5411 18.8842 45.1397 18.757C45.4361 18.694 45.7172 18.5732 45.9669 18.4015C46.2167 18.2299 46.4302 18.0107 46.5952 17.7565C46.7602 17.5024 46.8736 17.2182 46.9288 16.9202C46.984 16.6222 46.98 16.3163 46.917 16.0198C46.7897 15.4211 46.4299 14.8975 45.9166 14.5641C45.9055 14.5569 45.8928 14.5493 45.8812 14.5429L40.853 11.7745C41.028 10.929 40.9895 10.0531 40.7408 9.22626C40.4921 8.39939 40.0411 7.64759 39.4287 7.03893C38.8163 6.43026 38.0618 5.98395 37.2335 5.74041C36.4051 5.49686 35.5292 5.46376 34.6849 5.64411C34.032 5.78174 33.412 6.04472 32.8592 6.41847ZM39.7138 9.88313C39.8549 10.5512 39.8247 11.2442 39.626 11.8974C39.5875 12.024 39.5937 12.16 39.6435 12.2825C39.6933 12.4051 39.7837 12.5068 39.8995 12.5706L45.3035 15.543C45.5516 15.7133 45.7233 15.9737 45.7821 16.2688C45.8409 16.5639 45.7821 16.8703 45.6182 17.1226C45.4544 17.3749 45.1984 17.5533 44.905 17.6196C44.6115 17.6859 44.3038 17.635 44.0473 17.4776L39.1357 13.7525C39.0302 13.6725 38.9004 13.6312 38.768 13.6355C38.6357 13.6399 38.5089 13.6897 38.4089 13.7765C37.8348 14.2745 37.1319 14.6004 36.3809 14.7166C35.6299 14.8329 34.8614 14.7348 34.1636 14.4337C33.4659 14.1326 32.8672 13.6407 32.4365 13.0146C32.0058 12.3884 31.7605 11.6534 31.7289 10.894L34.5811 12.5879C34.6606 12.635 34.7501 12.6623 34.8423 12.6676C34.9345 12.6729 35.0267 12.656 35.111 12.6183L36.8831 11.8243C36.9844 11.7789 37.0705 11.7052 37.131 11.6121C37.1915 11.5189 37.2238 11.4103 37.224 11.2992L37.2282 9.35577C37.2283 9.26342 37.2063 9.17237 37.164 9.09028C37.1217 9.00819 37.0602 8.93747 36.9849 8.88406L34.2776 6.96699C34.8237 6.75155 35.4102 6.65766 35.9963 6.69187C36.5824 6.72609 37.154 6.88758 37.6714 7.16511C38.1888 7.44264 38.6395 7.82956 38.9922 8.29895C39.3449 8.76833 39.5912 9.30893 39.7138 9.88313Z" fill="#FFC23C"/>
<path d="M23.0049 39.7462L20.5301 37.2713C20.3113 37.0525 20.012 36.9321 19.6982 36.9365C19.3844 36.9409 19.0816 37.0698 18.8566 37.2949L10.3716 45.7799C10.1465 46.0049 10.0176 46.3076 10.0132 46.6215C10.0088 46.9353 10.1292 47.2345 10.348 47.4533L12.8229 49.9282C13.0417 50.147 13.3409 50.2674 13.6548 50.263C13.9686 50.2586 14.2713 50.1297 14.4964 49.9047L22.9814 41.4197C23.2064 41.1946 23.3353 40.8919 23.3397 40.578C23.3442 40.2642 23.2237 39.965 23.0049 39.7462ZM13.6714 49.0797L11.1965 46.6048L12.8935 44.9078L14.131 46.1453C14.2404 46.2547 14.39 46.3149 14.5469 46.3127C14.7038 46.3105 14.8552 46.246 14.9677 46.1335C15.0802 46.021 15.1447 45.8696 15.1469 45.7127C15.1491 45.5558 15.0889 45.4062 14.9795 45.2968L13.742 44.0593L15.0148 42.7866L16.2522 44.024C16.3616 44.1334 16.5112 44.1936 16.6682 44.1914C16.8251 44.1892 16.9764 44.1248 17.089 44.0122C17.2015 43.8997 17.2659 43.7484 17.2681 43.5914C17.2704 43.4345 17.2101 43.2849 17.1007 43.1755L15.8633 41.9381L17.1361 40.6653L18.3735 41.9028C18.4829 42.0122 18.6325 42.0724 18.7894 42.0702C18.9463 42.068 19.0977 42.0035 19.2102 41.891C19.3227 41.7785 19.3872 41.6271 19.3894 41.4702C19.3916 41.3133 19.3314 41.1637 19.222 41.0543L17.9846 39.8168L19.6816 38.1198L22.1564 40.5947L13.6714 49.0797ZM16.5848 32.7257C16.5859 32.648 16.5717 32.5712 16.543 32.4998C16.5143 32.4283 16.4716 32.3637 16.4174 32.3095C16.3632 32.2553 16.2985 32.2126 16.2271 32.1838C16.1557 32.1551 16.0789 32.1409 16.0011 32.1421L12.6542 32.1892C12.5765 32.1903 12.4993 32.2067 12.4271 32.2375C12.3549 32.2683 12.2891 32.3129 12.2334 32.3687L4.59688 40.0052C4.37184 40.2302 4.24294 40.5329 4.23852 40.8468C4.23411 41.1606 4.35454 41.4598 4.57334 41.6786L7.04821 44.1535C7.267 44.3723 7.56623 44.4927 7.88006 44.4883C8.1939 44.4839 8.49663 44.355 8.72167 44.13L16.3582 36.4934C16.414 36.4378 16.4585 36.3719 16.4893 36.2997C16.5201 36.2275 16.5366 36.1504 16.5377 36.0726L16.5848 32.7257ZM7.11884 39.1331L12.2098 34.0421L13.0348 34.8671L7.9438 39.9581L7.11884 39.1331ZM13.8598 35.692L14.6847 36.517L9.59371 41.608L8.76876 40.783L13.8598 35.692ZM15.393 33.3338L15.3626 35.4978L13.229 33.3643L15.393 33.3338ZM5.42184 40.8301L6.27034 39.9816L8.74521 42.4565L7.89671 43.305L5.42184 40.8301Z" fill="#FFC23C"/>
<path d="M21.6 7.91667C21.6 8.07138 21.5368 8.21975 21.4243 8.32915C21.3117 8.43854 21.1591 8.5 21 8.5H18.6C18.4409 8.5 18.2883 8.43854 18.1757 8.32915C18.0632 8.21975 18 8.07138 18 7.91667C18 7.76196 18.0632 7.61358 18.1757 7.50419C18.2883 7.39479 18.4409 7.33333 18.6 7.33333H21C21.1591 7.33333 21.3117 7.39479 21.4243 7.50419C21.5368 7.61358 21.6 7.76196 21.6 7.91667ZM21 9.66667H18.6C18.4409 9.66667 18.2883 9.72813 18.1757 9.83752C18.0632 9.94692 18 10.0953 18 10.25C18 10.4047 18.0632 10.5531 18.1757 10.6625C18.2883 10.7719 18.4409 10.8333 18.6 10.8333H21C21.1591 10.8333 21.3117 10.7719 21.4243 10.6625C21.5368 10.5531 21.6 10.4047 21.6 10.25C21.6 10.0953 21.5368 9.94692 21.4243 9.83752C21.3117 9.72813 21.1591 9.66667 21 9.66667ZM24 6.16667V17.8333C24 18.1428 23.8736 18.4395 23.6485 18.6583C23.4235 18.8771 23.1183 19 22.8 19H16.8C16.4817 19 16.1765 18.8771 15.9515 18.6583C15.7264 18.4395 15.6 18.1428 15.6 17.8333V16.6667H12.6V17.8333H13.8C13.9591 17.8333 14.1117 17.8948 14.2243 18.0042C14.3368 18.1136 14.4 18.262 14.4 18.4167C14.4 18.5714 14.3368 18.7198 14.2243 18.8291C14.1117 18.9385 13.9591 19 13.8 19H10.2C10.0409 19 9.88826 18.9385 9.77574 18.8291C9.66321 18.7198 9.6 18.5714 9.6 18.4167C9.6 18.262 9.66321 18.1136 9.77574 18.0042C9.88826 17.8948 10.0409 17.8333 10.2 17.8333H11.4V16.6667H7.8C7.32261 16.6667 6.86477 16.4823 6.52721 16.1541C6.18964 15.8259 6 15.3808 6 14.9167V9.66667C6 9.20254 6.18964 8.75742 6.52721 8.42923C6.86477 8.10104 7.32261 7.91667 7.8 7.91667H15.6V6.16667C15.6 5.85725 15.7264 5.5605 15.9515 5.34171C16.1765 5.12292 16.4817 5 16.8 5H22.8C23.1183 5 23.4235 5.12292 23.6485 5.34171C23.8736 5.5605 24 5.85725 24 6.16667ZM15.6 15.5V9.08333H7.8C7.64087 9.08333 7.48826 9.14479 7.37574 9.25419C7.26321 9.36358 7.2 9.51196 7.2 9.66667V14.9167C7.2 15.0714 7.26321 15.2198 7.37574 15.3291C7.48826 15.4385 7.64087 15.5 7.8 15.5H15.6ZM22.8 17.8333V6.16667H16.8V17.8333H22.8ZM19.8 14.9167C19.622 14.9167 19.448 14.968 19.3 15.0641C19.152 15.1603 19.0366 15.2969 18.9685 15.4568C18.9004 15.6167 18.8826 15.7926 18.9173 15.9624C18.952 16.1321 19.0377 16.288 19.1636 16.4104C19.2895 16.5328 19.4498 16.6161 19.6244 16.6499C19.799 16.6836 19.98 16.6663 20.1444 16.6001C20.3089 16.5338 20.4494 16.4217 20.5483 16.2778C20.6472 16.1339 20.7 15.9647 20.7 15.7917C20.7 15.5596 20.6052 15.337 20.4364 15.1729C20.2676 15.0089 20.0387 14.9167 19.8 14.9167Z" fill="#6419F0"/>
<path d="M69.6 5H58.4C58.0287 5 57.6726 5.14588 57.4101 5.40554C57.1475 5.66521 57 6.01739 57 6.38462V21.6154C57 21.9826 57.1475 22.3348 57.4101 22.5945C57.6726 22.8541 58.0287 23 58.4 23H69.6C69.9713 23 70.3274 22.8541 70.5899 22.5945C70.8525 22.3348 71 21.9826 71 21.6154V6.38462C71 6.01739 70.8525 5.66521 70.5899 5.40554C70.3274 5.14588 69.9713 5 69.6 5ZM69.6 21.6154H58.4V6.38462H69.6V21.6154ZM62.95 9.5C62.95 9.29461 63.0116 9.09384 63.127 8.92306C63.2423 8.75229 63.4063 8.61919 63.5982 8.54059C63.79 8.46199 64.0012 8.44142 64.2048 8.48149C64.4085 8.52156 64.5956 8.62047 64.7425 8.7657C64.8893 8.91093 64.9893 9.09596 65.0298 9.29741C65.0703 9.49885 65.0495 9.70765 64.9701 9.8974C64.8906 10.0872 64.756 10.2493 64.5833 10.3634C64.4107 10.4776 64.2077 10.5385 64 10.5385C63.7215 10.5385 63.4545 10.4291 63.2575 10.2343C63.0606 10.0396 62.95 9.77542 62.95 9.5ZM64 19.5385C64.6922 19.5385 65.3689 19.3354 65.9445 18.9551C66.5201 18.5747 66.9687 18.0341 67.2336 17.4016C67.4985 16.7691 67.5678 16.0731 67.4327 15.4016C67.2977 14.7301 66.9644 14.1134 66.4749 13.6292C65.9854 13.1451 65.3618 12.8155 64.6828 12.6819C64.0039 12.5483 63.3001 12.6169 62.6606 12.8789C62.0211 13.1409 61.4744 13.5845 61.0899 14.1538C60.7053 14.723 60.5 15.3923 60.5 16.0769C60.5 16.5315 60.5905 16.9816 60.7664 17.4016C60.9423 17.8216 61.2001 18.2032 61.5251 18.5246C62.1815 19.1738 63.0717 19.5385 64 19.5385ZM64 14C64.4153 14 64.8214 14.1218 65.1667 14.35C65.512 14.5782 65.7812 14.9026 65.9401 15.2821C66.0991 15.6616 66.1407 16.0792 66.0596 16.4821C65.9786 16.885 65.7786 17.2551 65.4849 17.5455C65.1912 17.836 64.8171 18.0338 64.4097 18.1139C64.0023 18.1941 63.5801 18.1529 63.1964 17.9958C62.8126 17.8386 62.4847 17.5723 62.2539 17.2308C62.0232 16.8893 61.9 16.4877 61.9 16.0769C61.9 15.5261 62.1212 14.9978 62.5151 14.6083C62.9089 14.2188 63.443 14 64 14Z" fill="#6419F0"/>
<path d="M59.3748 44.6256C59.4678 44.7186 59.5416 44.829 59.592 44.9505C59.6423 45.072 59.6682 45.2023 59.6682 45.3338C59.6682 45.4654 59.6423 45.5956 59.592 45.7171C59.5416 45.8386 59.4678 45.9491 59.3748 46.0421C59.2818 46.1351 59.1714 46.2089 59.0499 46.2592C58.9283 46.3095 58.7981 46.3354 58.6666 46.3354C58.535 46.3354 58.4048 46.3095 58.2832 46.2592C58.1617 46.2089 58.0513 46.1351 57.9583 46.0421L55.9584 44.0423C55.7706 43.8544 55.665 43.5997 55.665 43.334C55.665 43.0684 55.7706 42.8136 55.9584 42.6258C56.1463 42.4379 56.4011 42.3324 56.6667 42.3324C56.9324 42.3324 57.1871 42.4379 57.375 42.6258L59.3748 44.6256ZM61.0005 39.0011C60.605 39.0011 60.2184 39.1184 59.8895 39.3382C59.5606 39.5579 59.3043 39.8702 59.1529 40.2356C59.0016 40.6011 58.962 41.0031 59.0391 41.3911C59.1163 41.779 59.3068 42.1353 59.5864 42.415C59.8661 42.6947 60.2225 42.8851 60.6104 42.9623C60.9983 43.0395 61.4004 42.9999 61.7659 42.8485C62.1313 42.6971 62.4436 42.4408 62.6634 42.112C62.8831 41.7831 63.0004 41.3965 63.0004 41.0009C63.0004 40.4706 62.7897 39.9619 62.4146 39.5869C62.0396 39.2118 61.5309 39.0011 61.0005 39.0011ZM72.7072 34.0417C72.5558 34.1932 72.3598 34.2922 72.148 34.324C71.9362 34.3558 71.7197 34.3188 71.5306 34.2183L66.8334 38.9178C67.0509 39.4145 67.2011 39.9379 67.2801 40.4743C67.4892 41.9392 67.0967 43.2532 66.1743 44.1756C65.8009 44.5484 65.3547 44.8402 64.8636 45.033C64.802 45.0637 64.7505 45.1114 64.7152 45.1705C64.6799 45.2296 64.6623 45.2975 64.6644 45.3663C64.6203 46.667 64.1511 47.8011 63.3079 48.6443C62.4171 49.5309 61.2089 50 59.8448 50C59.5445 49.9994 59.2446 49.9777 58.9474 49.935C57.325 49.7034 55.7201 48.8643 54.4285 47.5728C53.137 46.2812 52.2979 44.6764 52.0662 43.0541C51.8162 41.3251 52.2795 39.7761 53.362 38.6937C54.2052 37.8504 55.3393 37.3813 56.64 37.3346C56.7088 37.3368 56.7768 37.3192 56.8358 37.2839C56.8949 37.2486 56.9426 37.1971 56.9734 37.1355C57.1657 36.6455 57.4567 36.2002 57.8283 35.8273C58.7507 34.9049 60.0648 34.5124 61.5297 34.7216C62.0652 34.8008 62.5878 34.951 63.0837 35.1682L67.7834 30.4712C67.6702 30.2595 67.637 30.0143 67.6898 29.7802C67.7425 29.546 67.8777 29.3387 68.0706 29.196C68.2636 29.0533 68.5014 28.9847 68.7407 29.0029C68.98 29.021 69.2048 29.1245 69.3741 29.2946L72.7072 32.6276C72.8947 32.8151 73 33.0695 73 33.3346C73 33.5998 72.8947 33.8541 72.7072 34.0417ZM70.0832 32.8351L69.1666 31.9185L67.5834 33.5017L68.5 34.4183L70.0832 32.8351ZM63.8912 38.1079C62.9612 37.1755 61.783 36.668 60.7789 36.668C60.1714 36.668 59.6281 36.8522 59.2423 37.2388C59.064 37.4201 58.925 37.6363 58.834 37.8738C58.6604 38.2979 58.3667 38.6621 57.9889 38.9216C57.6111 39.1811 57.1658 39.3246 56.7075 39.3344C56.1601 39.3528 55.3801 39.5011 54.776 40.106C54.1494 40.7326 53.8903 41.6784 54.0461 42.7724C54.2169 43.9698 54.8552 45.173 55.8426 46.1604C56.83 47.1478 58.0333 47.7861 59.2307 47.9569C60.3214 48.1127 61.2672 47.8536 61.8971 47.227C62.5013 46.6228 62.6471 45.8429 62.6688 45.2955C62.6781 44.8372 62.8212 44.3916 63.0804 44.0135C63.3397 43.6355 63.7037 43.3413 64.1278 43.1674C64.3647 43.0752 64.58 42.935 64.7603 42.7557C65.786 41.7334 65.3894 39.6036 63.8937 38.1079H63.8912ZM65.7502 37.1738L67.0834 35.8348L66.1668 34.9182L64.8278 36.2514C64.9944 36.3906 65.1527 36.5364 65.3077 36.6905C65.4627 36.8447 65.6077 37.0088 65.7502 37.1738Z" fill="#FFC23C"/>
<path d="M31.9316 29.8789C31.9316 30.3802 31.8665 30.8327 31.7363 31.2363C31.6126 31.6335 31.4466 31.985 31.2383 32.291C31.0299 32.597 30.7858 32.8574 30.5059 33.0723C30.2259 33.2871 29.9362 33.4629 29.6367 33.5996C29.3372 33.7363 29.0312 33.8372 28.7188 33.9023C28.4128 33.9674 28.123 34 27.8496 34H18.0547V31.4609H27.8496C28.3379 31.4609 28.7155 31.3177 28.9824 31.0312C29.2559 30.7448 29.3926 30.3607 29.3926 29.8789C29.3926 29.6445 29.3568 29.4297 29.2852 29.2344C29.2135 29.0391 29.1094 28.8698 28.9727 28.7266C28.8424 28.5833 28.6797 28.4727 28.4844 28.3945C28.2956 28.3164 28.084 28.2773 27.8496 28.2773H22.0098C21.5996 28.2773 21.1569 28.2057 20.6816 28.0625C20.2064 27.9128 19.7637 27.6751 19.3535 27.3496C18.9499 27.0241 18.6113 26.5977 18.3379 26.0703C18.071 25.543 17.9375 24.8984 17.9375 24.1367C17.9375 23.375 18.071 22.7337 18.3379 22.2129C18.6113 21.6855 18.9499 21.2591 19.3535 20.9336C19.7637 20.6016 20.2064 20.3639 20.6816 20.2207C21.1569 20.071 21.5996 19.9961 22.0098 19.9961H30.6523V22.5352H22.0098C21.528 22.5352 21.1504 22.6816 20.877 22.9746C20.61 23.2676 20.4766 23.6549 20.4766 24.1367C20.4766 24.625 20.61 25.0124 20.877 25.2988C21.1504 25.5788 21.528 25.7188 22.0098 25.7188H27.8496H27.8691C28.1426 25.7253 28.4323 25.7643 28.7383 25.8359C29.0443 25.901 29.347 26.0052 29.6465 26.1484C29.9525 26.2917 30.2422 26.474 30.5156 26.6953C30.7891 26.9102 31.0299 27.1706 31.2383 27.4766C31.4531 27.7826 31.6224 28.1341 31.7461 28.5312C31.8698 28.9284 31.9316 29.3776 31.9316 29.8789ZM35.877 32.7207C35.877 32.8965 35.8411 33.0625 35.7695 33.2188C35.7044 33.3685 35.6133 33.502 35.4961 33.6191C35.3854 33.7298 35.252 33.8177 35.0957 33.8828C34.946 33.9479 34.7865 33.9805 34.6172 33.9805C34.4414 33.9805 34.2754 33.9479 34.1191 33.8828C33.9694 33.8177 33.8359 33.7298 33.7188 33.6191C33.6081 33.502 33.5202 33.3685 33.4551 33.2188C33.39 33.0625 33.3574 32.8965 33.3574 32.7207C33.3574 32.5514 33.39 32.3919 33.4551 32.2422C33.5202 32.0859 33.6081 31.9525 33.7188 31.8418C33.8359 31.7246 33.9694 31.6335 34.1191 31.5684C34.2754 31.4967 34.4414 31.4609 34.6172 31.4609C34.7865 31.4609 34.946 31.4967 35.0957 31.5684C35.252 31.6335 35.3854 31.7246 35.4961 31.8418C35.6133 31.9525 35.7044 32.0859 35.7695 32.2422C35.8411 32.3919 35.877 32.5514 35.877 32.7207ZM51.8828 34H49.3438V30.5625H40.418V34H37.8789V26.998C37.8789 25.9759 38.0547 25.0352 38.4062 24.1758C38.7578 23.3164 39.2461 22.5775 39.8711 21.959C40.4961 21.3405 41.235 20.8587 42.0879 20.5137C42.9408 20.1686 43.8717 19.9961 44.8809 19.9961H50.6035C50.7793 19.9961 50.9453 20.0286 51.1016 20.0938C51.2578 20.1589 51.3945 20.25 51.5117 20.3672C51.6289 20.4844 51.7201 20.6211 51.7852 20.7773C51.8503 20.9336 51.8828 21.0996 51.8828 21.2754V34ZM40.418 28.0234H49.3438V22.5352H44.8809C44.8027 22.5352 44.6367 22.5482 44.3828 22.5742C44.1354 22.5938 43.8457 22.6491 43.5137 22.7402C43.1882 22.8314 42.8431 22.9714 42.4785 23.1602C42.1139 23.349 41.7786 23.6094 41.4727 23.9414C41.1667 24.2734 40.9128 24.6901 40.7109 25.1914C40.5156 25.6862 40.418 26.2884 40.418 26.998V28.0234ZM56.6777 32.7207C56.6777 32.8965 56.6419 33.0625 56.5703 33.2188C56.5052 33.3685 56.4141 33.502 56.2969 33.6191C56.1862 33.7298 56.0527 33.8177 55.8965 33.8828C55.7467 33.9479 55.5872 33.9805 55.418 33.9805C55.2422 33.9805 55.0762 33.9479 54.9199 33.8828C54.7702 33.8177 54.6367 33.7298 54.5195 33.6191C54.4089 33.502 54.321 33.3685 54.2559 33.2188C54.1908 33.0625 54.1582 32.8965 54.1582 32.7207C54.1582 32.5514 54.1908 32.3919 54.2559 32.2422C54.321 32.0859 54.4089 31.9525 54.5195 31.8418C54.6367 31.7246 54.7702 31.6335 54.9199 31.5684C55.0762 31.4967 55.2422 31.4609 55.418 31.4609C55.5872 31.4609 55.7467 31.4967 55.8965 31.5684C56.0527 31.6335 56.1862 31.7246 56.2969 31.8418C56.4141 31.9525 56.5052 32.0859 56.5703 32.2422C56.6419 32.3919 56.6777 32.5514 56.6777 32.7207Z" fill="#FEEBF8"/>
</svg>
